<svg id="Capa_1" data-name="Capa 1" xmlns="http://www.w3.org/2000/svg" xmlns:xlink="http://www.w3.org/1999/xlink" viewBox="0 0 351.08 328.32"><defs><style>.cls-1{fill:none;stroke:#020202;stroke-miterlimit:10;}.cls-2{fill:#d8dddb;}.cls-3{fill:url(#Degradado_sin_nombre_2);}.cls-4{fill:#e4e67e;}.cls-5{fill:#1d1d1b;}</style><linearGradient id="Degradado_sin_nombre_2" x1="9.47" y1="166.63" x2="292.82" y2="166.63" gradientUnits="userSpaceOnUse"><stop offset="0" stop-color="#3aaa35"/><stop offset="0.22" stop-color="#34a335"/><stop offset="0.54" stop-color="#238f34"/><stop offset="0.92" stop-color="#076e33"/><stop offset="1" stop-color="#063"/></linearGradient></defs><path class="cls-1" d="M104.13,89.54q-3.43,0-6.83.28A61.63,61.63,0,0,1,104.13,89.54Z"/><path class="cls-2" d="M195.93,187.76a66.45,66.45,0,0,1-19.25,40.64l-8.44,8.88a2.37,2.37,0,0,0-.47.71l-9.65,23.08a2.13,2.13,0,0,0-.15.49,5.47,5.47,0,0,1-1.79,3.13,2.44,2.44,0,0,0-.12,3.49A7.75,7.75,0,0,1,158,273c.36,4.1.13,2.87-.09,1.51a2.61,2.61,0,0,1,0-.4,3.17,3.17,0,0,0-.2-1.11l.15,1a2.48,2.48,0,0,1,0,.72,4.57,4.57,0,0,1-1.64,2.71,2.39,2.39,0,0,0,0,3.57,6.26,6.26,0,0,1,1.83,4.66s.36,5.68-4.9,6.38a2.38,2.38,0,0,0-1.92,1.46c-1.31,3.3-5.23,11.31-12.46,11.58H99.39s-6.86-.21-11.64-11.64A2.34,2.34,0,0,0,86,292c-1.68-.28-4.55-1.46-5.06-6.21a1.7,1.7,0,0,1,0-.39A6.6,6.6,0,0,1,82.86,281a2.33,2.33,0,0,0,.09-3.44,6.52,6.52,0,0,1-2-4.58,1.4,1.4,0,0,1,0-.29,6.93,6.93,0,0,1,2-4.5,2.41,2.41,0,0,0,0-3.57,6,6,0,0,1-2-3.39,2.88,2.88,0,0,0-.15-.5l-10.71-24.3a2.47,2.47,0,0,0-.55-.77c-.58-.54-1.84-1.74-3.51-3.49-.59-.61-1.22-1.29-1.9-2a2.38,2.38,0,0,1,0-3.23l24.21-25.1a2.37,2.37,0,0,1,4,1.27L100,249.85l3,18.7a2.37,2.37,0,0,0,4,1.27l17.31-18,67.85-70.36a2.37,2.37,0,0,1,4.07,1.77C196.22,184.75,196.1,186.24,195.93,187.76Z"/><path class="cls-3" d="M288.94,64.06a2.36,2.36,0,0,1,3.18,3.48h0L265.8,94.84,201,162l-.5.51-72,74.71-17.33,18a2.36,2.36,0,0,1-4-1.26l-3-18.71-7.56-46.83a2.36,2.36,0,0,0-4-1.26L66.76,213.83l-.24.26L13.56,269A2.36,2.36,0,0,1,10,266l46.53-64.45.54-.75,25.51-35.34L93.76,149.9l3.42-4.75,6.42-8.88,1.5-2.08,7.62-10.55a2.36,2.36,0,0,1,4.24,1L120,143.72l1.56,9.61,2,12.12,2.66,16.45,1.29,8a2.36,2.36,0,0,0,3.81,1.47l20.79-16.79,11.26-9.09,33.58-27.11.08-.07.42-.34Z"/><path class="cls-4" d="M98.37,89.11v44.48a4.47,4.47,0,0,1-.85,2.61l-9,12.53a4.46,4.46,0,0,1-3.61,1.85H63.12a4.46,4.46,0,0,1-4.46-4.46V105.63A4.48,4.48,0,0,1,61,101.7L91.8,85.18A4.46,4.46,0,0,1,98.37,89.11Z"/><path class="cls-4" d="M149.41,55.84v93.8a1,1,0,0,1-.95.94H129a1,1,0,0,1-.93-.79l-1.82-11.33-1.56-9.61L121,106.39a1,1,0,0,0-1.7-.4l-7.92,11a1,1,0,0,1-1.71-.55V76.13a1,1,0,0,1,.5-.83L148,55A.94.94,0,0,1,149.41,55.84Z"/><path class="cls-4" d="M201.63,30.73V123.4l-.08.07L168.71,150a2.69,2.69,0,0,1-1.69.6h-2.4a2.69,2.69,0,0,1-2.69-2.69V49.15a2.68,2.68,0,0,1,1.42-2.38l34.32-18.41A2.68,2.68,0,0,1,201.63,30.73Z"/><path class="cls-5" d="M201.6,226.07c0,3.93-3.74,6.71-8.46,6.71h-4.8v-13.4h4.8C197.86,219.38,201.6,222.16,201.6,226.07Zm-8.81,5.21c4,0,6.87-2.07,6.87-5.21s-2.92-5.2-6.85-5.2h-2.47v10.41Z"/><path class="cls-5" d="M208.6,233.19c-3.57,0-5.88-2.16-5.88-4.84s2.31-4.86,5.88-4.86c4.12,0,6.28,2.86,5.59,5.49h-9.64c.32,1.52,1.82,2.68,4.1,2.68a4.66,4.66,0,0,0,3.62-1.52l1.59.51A6.22,6.22,0,0,1,208.6,233.19Zm3.82-5.47c0-1.38-1.32-2.72-3.77-2.72-2.26,0-3.73,1.2-4.08,2.72Z"/><path class="cls-5" d="M224,230.32c0,1.63-1.62,2.87-4.12,2.87a8.18,8.18,0,0,1-5-1.52l.51-1.5a7.55,7.55,0,0,0,4.42,1.37c1.62,0,2.56-.63,2.56-1.29s-.75-1.17-2.55-1.22c-2.62-.05-4.1-1.19-4.1-2.74s1.38-2.8,3.77-2.8a7.08,7.08,0,0,1,4,1.09v1.57a6.51,6.51,0,0,0-3.72-1c-1.49,0-2.33.61-2.33,1.28s.88,1.15,2.58,1.19C222.91,227.64,224,228.83,224,230.32Z"/><path class="cls-5" d="M232.44,232.78v-1.21a3.75,3.75,0,0,1-3.34,1.62c-2.24,0-4-1.33-4-3.22s1.77-3.22,4-3.22a3.74,3.74,0,0,1,3.25,1.5v-1.14c0-1.35-1.34-2.11-3.15-2.11a5.54,5.54,0,0,0-3.06.94l-.45-1.27a7.38,7.38,0,0,1,3.94-1.18c2.59,0,4.41,1.36,4.41,3.59v5.7Zm-2.86-.89c1.61,0,2.7-.88,2.7-1.92s-1.09-1.93-2.7-1.93c-1.43,0-2.62.82-2.62,1.93S228.16,231.89,229.58,231.89Z"/><path class="cls-5" d="M240.62,225.31c-1.47,0-2.68,1.08-2.68,3.16v4.31h-2v-8.87h1.79v1.72a3.73,3.73,0,0,1,3.47-2.14,4.17,4.17,0,0,1,2.42.75l-.8,1.65A4.44,4.44,0,0,0,240.62,225.31Z"/><path class="cls-5" d="M248.63,225.31c-1.47,0-2.67,1.08-2.67,3.16v4.31h-2v-8.87h1.79v1.72a3.74,3.74,0,0,1,3.47-2.14,4.17,4.17,0,0,1,2.43.75l-.81,1.65A4.41,4.41,0,0,0,248.63,225.31Z"/><path class="cls-5" d="M262.91,228.35c0,2.68-2.6,4.84-5.8,4.84s-5.82-2.16-5.82-4.84,2.6-4.86,5.82-4.86S262.91,225.68,262.91,228.35Zm-5.8,3.19c2.3,0,4.08-1.4,4.08-3.19s-1.78-3.22-4.08-3.22-4.08,1.42-4.08,3.22S254.81,231.54,257.11,231.54Z"/><path class="cls-5" d="M264.72,232.78v-13.4h2v13.4Z"/><path class="cls-5" d="M269.7,232.78v-13.4h2v13.4Z"/><path class="cls-5" d="M285.08,228.35c0,2.68-2.59,4.84-5.8,4.84s-5.82-2.16-5.82-4.84,2.6-4.86,5.82-4.86S285.08,225.68,285.08,228.35Zm-5.8,3.19c2.3,0,4.08-1.4,4.08-3.19s-1.78-3.22-4.08-3.22-4.08,1.42-4.08,3.22S277,231.54,279.28,231.54Z"/><path class="cls-5" d="M302.35,232.78V231a5.23,5.23,0,0,1-4.53,2.23c-3.22,0-5.52-2.16-5.52-4.84s2.3-4.86,5.52-4.86a5.22,5.22,0,0,1,4.53,2.25v-6.36h2v13.4Zm-4.13-1.07c2.46,0,4.13-1.57,4.13-3.36s-1.67-3.37-4.13-3.37c-2.29,0-4.12,1.47-4.12,3.37S296,231.71,298.22,231.71Z"/><path class="cls-5" d="M311.76,233.19c-3.57,0-5.88-2.16-5.88-4.84s2.31-4.86,5.88-4.86c4.12,0,6.28,2.86,5.59,5.49h-9.63c.31,1.52,1.81,2.68,4.09,2.68a4.66,4.66,0,0,0,3.62-1.52l1.59.51A6.21,6.21,0,0,1,311.76,233.19Zm3.82-5.47c0-1.38-1.32-2.72-3.77-2.72-2.26,0-3.73,1.2-4.08,2.72Z"/><path class="cls-5" d="M190,237.42v21h-.15l-13.17-13.75v13.42h-3.23v-21h.17l13.14,13.73V237.42Z"/><path class="cls-5" d="M197.21,240.66v5.27H205v3.22h-7.79v5.69h9v3.22H194V237.48h12.26v3.18Z"/><path class="cls-5" d="M229.15,248.43a9.55,9.55,0,0,1-9.79,10,10.64,10.64,0,1,1-.12-21.28,11.53,11.53,0,0,1,7.5,3.15l-1.8,2.69a8.57,8.57,0,0,0-5.74-2.58,7.38,7.38,0,1,0,.3,14.76c3.53,0,6.19-2.16,6.19-5.3v-.06h-6.37v-3h9.74A15.76,15.76,0,0,1,229.15,248.43Z"/><path class="cls-5" d="M231.15,247.79a10.65,10.65,0,1,1,10.62,10.61A10.67,10.67,0,0,1,231.15,247.79Zm18,0a7.39,7.39,0,1,0-7.4,7.36A7.42,7.42,0,0,0,249.17,247.77Z"/><path class="cls-5" d="M254.42,247.78a10.75,10.75,0,0,1,10.63-10.66,10.4,10.4,0,0,1,7.15,3.14l-1.88,2.54a7.66,7.66,0,0,0-5.34-2.4,7.38,7.38,0,0,0,0,14.75,7.64,7.64,0,0,0,5.33-2.45l1.87,2.6a9.83,9.83,0,0,1-7.1,3.1A10.72,10.72,0,0,1,254.42,247.78Z"/><path class="cls-5" d="M274.77,237.48H278v20.58h-3.23Z"/><path class="cls-5" d="M281,247.79A10.65,10.65,0,1,1,291.6,258.4,10.67,10.67,0,0,1,281,247.79Zm18,0a7.39,7.39,0,1,0-7.4,7.36A7.42,7.42,0,0,0,299,247.77Z"/><path class="cls-5" d="M304.05,254.45l2.55-1.83a5.16,5.16,0,0,0,4.61,2.53c2.31,0,4.06-1.11,4.06-2.68,0-1.9-2.7-3.05-5.11-4.09s-5.09-2.32-5.09-5.55c0-3.38,2.92-5.72,6.63-5.72,2.93,0,5.13,1.41,6,3.67l-2.4,1.66a3.84,3.84,0,0,0-3.55-2.17c-1.89,0-3.39,1.18-3.39,2.63,0,1.61,1.9,2.19,4.4,3.26,3.26,1.43,5.79,3,5.79,6.25,0,3.65-3.17,6-7.35,6C307.79,258.41,305.22,256.82,304.05,254.45Z"/></svg>